<mxfile host="app.diagrams.net" agent="Mozilla/5.0 (Windows NT 10.0; Win64; x64) AppleWebKit/537.36 (KHTML, like Gecko) Chrome/131.0.0.0 Safari/537.36" version="25.0.3">
  <diagram name="Page-1" id="m5FEflI3Q69zdX6eaSdp">
    <mxGraphModel dx="3387" dy="868" grid="1" gridSize="10" guides="1" tooltips="1" connect="1" arrows="1" fold="1" page="1" pageScale="1" pageWidth="850" pageHeight="1100" math="0" shadow="0">
      <root>
        <mxCell id="0" />
        <mxCell id="1" parent="0" />
        <mxCell id="st-_w6ac-Qn8dqlOcEFm-6" value="" style="edgeStyle=orthogonalEdgeStyle;rounded=0;orthogonalLoop=1;jettySize=auto;html=1;endArrow=none;endFill=0;" parent="1" source="st-_w6ac-Qn8dqlOcEFm-1" target="st-_w6ac-Qn8dqlOcEFm-5" edge="1">
          <mxGeometry relative="1" as="geometry" />
        </mxCell>
        <mxCell id="st-_w6ac-Qn8dqlOcEFm-178" value="" style="edgeStyle=orthogonalEdgeStyle;rounded=0;orthogonalLoop=1;jettySize=auto;html=1;shape=link;" parent="1" source="st-_w6ac-Qn8dqlOcEFm-1" target="st-_w6ac-Qn8dqlOcEFm-177" edge="1">
          <mxGeometry relative="1" as="geometry" />
        </mxCell>
        <mxCell id="st-_w6ac-Qn8dqlOcEFm-1" value="Exam" style="rounded=1;whiteSpace=wrap;html=1;" parent="1" vertex="1">
          <mxGeometry x="65" y="247.5" width="110" height="40" as="geometry" />
        </mxCell>
        <mxCell id="st-_w6ac-Qn8dqlOcEFm-5" value="no_mcq_ques" style="ellipse;whiteSpace=wrap;html=1;rounded=1;" parent="1" vertex="1">
          <mxGeometry x="80" y="147.5" width="80" height="40" as="geometry" />
        </mxCell>
        <mxCell id="st-_w6ac-Qn8dqlOcEFm-7" value="" style="edgeStyle=orthogonalEdgeStyle;rounded=0;orthogonalLoop=1;jettySize=auto;html=1;endArrow=none;endFill=0;curved=1;" parent="1" target="st-_w6ac-Qn8dqlOcEFm-8" edge="1">
          <mxGeometry relative="1" as="geometry">
            <mxPoint x="175" y="277.5" as="sourcePoint" />
            <Array as="points">
              <mxPoint x="175" y="227.5" />
              <mxPoint x="225" y="227.5" />
            </Array>
          </mxGeometry>
        </mxCell>
        <mxCell id="st-_w6ac-Qn8dqlOcEFm-8" value="no_text_ques" style="ellipse;whiteSpace=wrap;html=1;rounded=1;" parent="1" vertex="1">
          <mxGeometry x="195" y="147.5" width="80" height="40" as="geometry" />
        </mxCell>
        <mxCell id="st-_w6ac-Qn8dqlOcEFm-9" value="" style="edgeStyle=orthogonalEdgeStyle;rounded=0;orthogonalLoop=1;jettySize=auto;html=1;endArrow=none;endFill=0;exitX=0;exitY=0.5;exitDx=0;exitDy=0;curved=1;" parent="1" source="st-_w6ac-Qn8dqlOcEFm-1" target="st-_w6ac-Qn8dqlOcEFm-10" edge="1">
          <mxGeometry relative="1" as="geometry">
            <mxPoint x="5" y="257.5" as="sourcePoint" />
          </mxGeometry>
        </mxCell>
        <mxCell id="st-_w6ac-Qn8dqlOcEFm-10" value="no_tf_ques" style="ellipse;whiteSpace=wrap;html=1;rounded=1;" parent="1" vertex="1">
          <mxGeometry x="-45" y="162.5" width="80" height="40" as="geometry" />
        </mxCell>
        <mxCell id="st-_w6ac-Qn8dqlOcEFm-11" value="" style="edgeStyle=orthogonalEdgeStyle;rounded=0;orthogonalLoop=1;jettySize=auto;html=1;endArrow=none;endFill=0;curved=1;exitX=0.091;exitY=-0.025;exitDx=0;exitDy=0;exitPerimeter=0;entryX=0.263;entryY=1.025;entryDx=0;entryDy=0;entryPerimeter=0;" parent="1" source="st-_w6ac-Qn8dqlOcEFm-1" target="st-_w6ac-Qn8dqlOcEFm-12" edge="1">
          <mxGeometry relative="1" as="geometry">
            <mxPoint x="100" y="127.5" as="sourcePoint" />
            <Array as="points">
              <mxPoint x="75" y="182.5" />
              <mxPoint x="76" y="182.5" />
            </Array>
          </mxGeometry>
        </mxCell>
        <mxCell id="st-_w6ac-Qn8dqlOcEFm-12" value="mcq_degree" style="ellipse;whiteSpace=wrap;html=1;rounded=1;" parent="1" vertex="1">
          <mxGeometry x="55" y="77.5" width="80" height="40" as="geometry" />
        </mxCell>
        <mxCell id="st-_w6ac-Qn8dqlOcEFm-13" value="" style="edgeStyle=orthogonalEdgeStyle;rounded=0;orthogonalLoop=1;jettySize=auto;html=1;endArrow=none;endFill=0;curved=1;exitX=0.75;exitY=0;exitDx=0;exitDy=0;" parent="1" source="st-_w6ac-Qn8dqlOcEFm-1" target="st-_w6ac-Qn8dqlOcEFm-14" edge="1">
          <mxGeometry relative="1" as="geometry">
            <mxPoint x="155" y="157.5" as="sourcePoint" />
            <Array as="points">
              <mxPoint x="165" y="247.5" />
              <mxPoint x="165" y="157.5" />
              <mxPoint x="185" y="157.5" />
            </Array>
          </mxGeometry>
        </mxCell>
        <mxCell id="st-_w6ac-Qn8dqlOcEFm-14" value="text_degree" style="ellipse;whiteSpace=wrap;html=1;rounded=1;" parent="1" vertex="1">
          <mxGeometry x="155" y="87.5" width="80" height="40" as="geometry" />
        </mxCell>
        <mxCell id="st-_w6ac-Qn8dqlOcEFm-15" value="" style="edgeStyle=orthogonalEdgeStyle;rounded=0;orthogonalLoop=1;jettySize=auto;html=1;endArrow=none;endFill=0;curved=1;" parent="1" source="st-_w6ac-Qn8dqlOcEFm-1" target="st-_w6ac-Qn8dqlOcEFm-16" edge="1">
          <mxGeometry relative="1" as="geometry">
            <mxPoint x="45" y="147.5" as="sourcePoint" />
            <Array as="points">
              <mxPoint x="65" y="147.5" />
              <mxPoint x="15" y="147.5" />
            </Array>
          </mxGeometry>
        </mxCell>
        <mxCell id="st-_w6ac-Qn8dqlOcEFm-16" value="tf_degree" style="ellipse;whiteSpace=wrap;html=1;rounded=1;" parent="1" vertex="1">
          <mxGeometry x="-35" y="87.5" width="80" height="40" as="geometry" />
        </mxCell>
        <mxCell id="st-_w6ac-Qn8dqlOcEFm-17" value="type" style="ellipse;whiteSpace=wrap;html=1;rounded=1;" parent="1" vertex="1">
          <mxGeometry x="-115" y="127.5" width="80" height="40" as="geometry" />
        </mxCell>
        <mxCell id="st-_w6ac-Qn8dqlOcEFm-18" style="rounded=0;orthogonalLoop=1;jettySize=auto;html=1;entryX=0;entryY=0.75;entryDx=0;entryDy=0;endArrow=none;endFill=0;edgeStyle=orthogonalEdgeStyle;curved=1;" parent="1" source="st-_w6ac-Qn8dqlOcEFm-17" target="st-_w6ac-Qn8dqlOcEFm-1" edge="1">
          <mxGeometry relative="1" as="geometry">
            <Array as="points">
              <mxPoint x="55" y="147.5" />
              <mxPoint x="55" y="277.5" />
            </Array>
          </mxGeometry>
        </mxCell>
        <mxCell id="st-_w6ac-Qn8dqlOcEFm-19" value="start_time" style="ellipse;whiteSpace=wrap;html=1;rounded=1;" parent="1" vertex="1">
          <mxGeometry x="285" y="137.5" width="80" height="40" as="geometry" />
        </mxCell>
        <mxCell id="st-_w6ac-Qn8dqlOcEFm-20" style="rounded=0;orthogonalLoop=1;jettySize=auto;html=1;endArrow=none;endFill=0;edgeStyle=orthogonalEdgeStyle;curved=1;" parent="1" source="st-_w6ac-Qn8dqlOcEFm-19" target="st-_w6ac-Qn8dqlOcEFm-1" edge="1">
          <mxGeometry relative="1" as="geometry">
            <mxPoint x="195" y="367.5" as="targetPoint" />
            <Array as="points">
              <mxPoint x="325" y="227.5" />
              <mxPoint x="185" y="227.5" />
              <mxPoint x="185" y="267.5" />
            </Array>
          </mxGeometry>
        </mxCell>
        <mxCell id="st-_w6ac-Qn8dqlOcEFm-21" value="end_time" style="ellipse;whiteSpace=wrap;html=1;rounded=1;" parent="1" vertex="1">
          <mxGeometry x="265" y="97.5" width="80" height="40" as="geometry" />
        </mxCell>
        <mxCell id="st-_w6ac-Qn8dqlOcEFm-22" style="rounded=0;orthogonalLoop=1;jettySize=auto;html=1;endArrow=none;endFill=0;edgeStyle=orthogonalEdgeStyle;curved=1;" parent="1" source="st-_w6ac-Qn8dqlOcEFm-21" target="st-_w6ac-Qn8dqlOcEFm-1" edge="1">
          <mxGeometry relative="1" as="geometry">
            <mxPoint x="65" y="297.5" as="targetPoint" />
            <Array as="points">
              <mxPoint x="165" y="127.5" />
            </Array>
          </mxGeometry>
        </mxCell>
        <mxCell id="st-_w6ac-Qn8dqlOcEFm-29" value="" style="edgeStyle=orthogonalEdgeStyle;rounded=0;orthogonalLoop=1;jettySize=auto;html=1;endArrow=none;endFill=0;curved=1;exitX=0.75;exitY=0;exitDx=0;exitDy=0;" parent="1" source="st-_w6ac-Qn8dqlOcEFm-26" target="st-_w6ac-Qn8dqlOcEFm-28" edge="1">
          <mxGeometry relative="1" as="geometry">
            <Array as="points">
              <mxPoint x="710" y="240" />
              <mxPoint x="710" y="220" />
              <mxPoint x="770" y="220" />
            </Array>
          </mxGeometry>
        </mxCell>
        <mxCell id="st-_w6ac-Qn8dqlOcEFm-130" value="" style="edgeStyle=orthogonalEdgeStyle;rounded=0;orthogonalLoop=1;jettySize=auto;html=1;endArrow=none;endFill=0;shape=link;" parent="1" source="st-_w6ac-Qn8dqlOcEFm-26" target="st-_w6ac-Qn8dqlOcEFm-129" edge="1">
          <mxGeometry relative="1" as="geometry">
            <Array as="points">
              <mxPoint x="690" y="330" />
              <mxPoint x="930" y="330" />
            </Array>
          </mxGeometry>
        </mxCell>
        <mxCell id="st-_w6ac-Qn8dqlOcEFm-26" value="Question" style="rounded=1;whiteSpace=wrap;html=1;" parent="1" vertex="1">
          <mxGeometry x="590" y="240" width="120" height="50" as="geometry" />
        </mxCell>
        <mxCell id="st-_w6ac-Qn8dqlOcEFm-28" value="question_text" style="ellipse;whiteSpace=wrap;html=1;rounded=1;" parent="1" vertex="1">
          <mxGeometry x="765" y="165" width="80" height="45" as="geometry" />
        </mxCell>
        <mxCell id="st-_w6ac-Qn8dqlOcEFm-30" value="" style="edgeStyle=orthogonalEdgeStyle;rounded=0;orthogonalLoop=1;jettySize=auto;html=1;endArrow=none;endFill=0;curved=1;exitX=0.75;exitY=0;exitDx=0;exitDy=0;entryX=0;entryY=1;entryDx=0;entryDy=0;" parent="1" source="st-_w6ac-Qn8dqlOcEFm-26" target="st-_w6ac-Qn8dqlOcEFm-31" edge="1">
          <mxGeometry relative="1" as="geometry">
            <mxPoint x="600" y="225" as="sourcePoint" />
            <Array as="points">
              <mxPoint x="690" y="240" />
              <mxPoint x="690" y="195" />
              <mxPoint x="730" y="195" />
              <mxPoint x="730" y="158" />
            </Array>
          </mxGeometry>
        </mxCell>
        <mxCell id="st-_w6ac-Qn8dqlOcEFm-31" value="correct_answer" style="ellipse;whiteSpace=wrap;html=1;rounded=1;" parent="1" vertex="1">
          <mxGeometry x="725" y="120" width="100" height="45" as="geometry" />
        </mxCell>
        <mxCell id="st-_w6ac-Qn8dqlOcEFm-32" value="" style="edgeStyle=orthogonalEdgeStyle;rounded=0;orthogonalLoop=1;jettySize=auto;html=1;endArrow=none;endFill=0;curved=1;exitX=1;exitY=0;exitDx=0;exitDy=0;" parent="1" source="st-_w6ac-Qn8dqlOcEFm-33" target="st-_w6ac-Qn8dqlOcEFm-34" edge="1">
          <mxGeometry relative="1" as="geometry" />
        </mxCell>
        <mxCell id="st-_w6ac-Qn8dqlOcEFm-33" value="MCQ_Choice" style="rounded=1;whiteSpace=wrap;html=1;" parent="1" vertex="1">
          <mxGeometry x="1050" y="485" width="120" height="50" as="geometry" />
        </mxCell>
        <mxCell id="st-_w6ac-Qn8dqlOcEFm-34" value="choice_text" style="ellipse;whiteSpace=wrap;html=1;rounded=1;" parent="1" vertex="1">
          <mxGeometry x="1180" y="405" width="80" height="45" as="geometry" />
        </mxCell>
        <mxCell id="st-_w6ac-Qn8dqlOcEFm-35" value="" style="edgeStyle=orthogonalEdgeStyle;rounded=0;orthogonalLoop=1;jettySize=auto;html=1;endArrow=none;endFill=0;" parent="1" source="st-_w6ac-Qn8dqlOcEFm-33" target="st-_w6ac-Qn8dqlOcEFm-36" edge="1">
          <mxGeometry relative="1" as="geometry">
            <mxPoint x="1060" y="470" as="sourcePoint" />
            <Array as="points">
              <mxPoint x="1120" y="465" />
              <mxPoint x="1120" y="465" />
            </Array>
          </mxGeometry>
        </mxCell>
        <mxCell id="st-_w6ac-Qn8dqlOcEFm-36" value="is_correct" style="ellipse;whiteSpace=wrap;html=1;rounded=1;" parent="1" vertex="1">
          <mxGeometry x="1070" y="365" width="100" height="45" as="geometry" />
        </mxCell>
        <mxCell id="st-_w6ac-Qn8dqlOcEFm-38" value="Question_Type" style="rounded=1;whiteSpace=wrap;html=1;" parent="1" vertex="1">
          <mxGeometry x="1050" y="240" width="120" height="50" as="geometry" />
        </mxCell>
        <mxCell id="st-_w6ac-Qn8dqlOcEFm-40" value="" style="edgeStyle=orthogonalEdgeStyle;rounded=0;orthogonalLoop=1;jettySize=auto;html=1;endArrow=none;endFill=0;exitX=1;exitY=0.5;exitDx=0;exitDy=0;" parent="1" source="st-_w6ac-Qn8dqlOcEFm-38" target="st-_w6ac-Qn8dqlOcEFm-41" edge="1">
          <mxGeometry relative="1" as="geometry">
            <mxPoint x="1060" y="225" as="sourcePoint" />
            <Array as="points">
              <mxPoint x="1170" y="263" />
            </Array>
          </mxGeometry>
        </mxCell>
        <mxCell id="st-_w6ac-Qn8dqlOcEFm-41" value="type" style="ellipse;whiteSpace=wrap;html=1;rounded=1;" parent="1" vertex="1">
          <mxGeometry x="1170" y="185" width="100" height="45" as="geometry" />
        </mxCell>
        <mxCell id="st-_w6ac-Qn8dqlOcEFm-220" value="" style="edgeStyle=orthogonalEdgeStyle;rounded=0;orthogonalLoop=1;jettySize=auto;html=1;endArrow=none;endFill=0;" parent="1" source="st-_w6ac-Qn8dqlOcEFm-43" target="st-_w6ac-Qn8dqlOcEFm-219" edge="1">
          <mxGeometry relative="1" as="geometry" />
        </mxCell>
        <mxCell id="st-_w6ac-Qn8dqlOcEFm-248" value="" style="edgeStyle=orthogonalEdgeStyle;rounded=0;orthogonalLoop=1;jettySize=auto;html=1;endArrow=none;endFill=0;" parent="1" source="st-_w6ac-Qn8dqlOcEFm-43" target="st-_w6ac-Qn8dqlOcEFm-247" edge="1">
          <mxGeometry relative="1" as="geometry">
            <Array as="points">
              <mxPoint x="50" y="680" />
              <mxPoint x="480" y="680" />
            </Array>
          </mxGeometry>
        </mxCell>
        <mxCell id="st-_w6ac-Qn8dqlOcEFm-254" style="edgeStyle=orthogonalEdgeStyle;rounded=0;orthogonalLoop=1;jettySize=auto;html=1;exitX=0;exitY=1;exitDx=0;exitDy=0;entryX=1;entryY=0.5;entryDx=0;entryDy=0;shape=link;" parent="1" source="st-_w6ac-Qn8dqlOcEFm-43" target="st-_w6ac-Qn8dqlOcEFm-255" edge="1">
          <mxGeometry relative="1" as="geometry">
            <mxPoint x="-180" y="980" as="targetPoint" />
            <Array as="points">
              <mxPoint x="-160" y="785" />
              <mxPoint x="-160" y="973" />
            </Array>
          </mxGeometry>
        </mxCell>
        <mxCell id="st-_w6ac-Qn8dqlOcEFm-43" value="Course" style="rounded=1;whiteSpace=wrap;html=1;" parent="1" vertex="1">
          <mxGeometry x="-60" y="735" width="120" height="50" as="geometry" />
        </mxCell>
        <mxCell id="st-_w6ac-Qn8dqlOcEFm-45" value="" style="edgeStyle=orthogonalEdgeStyle;rounded=0;orthogonalLoop=1;jettySize=auto;html=1;endArrow=none;endFill=0;exitX=0.75;exitY=1;exitDx=0;exitDy=0;curved=1;entryX=0.5;entryY=0;entryDx=0;entryDy=0;" parent="1" source="st-_w6ac-Qn8dqlOcEFm-43" target="st-_w6ac-Qn8dqlOcEFm-46" edge="1">
          <mxGeometry relative="1" as="geometry">
            <mxPoint x="-50" y="720" as="sourcePoint" />
            <Array as="points">
              <mxPoint x="30" y="822" />
              <mxPoint x="60" y="822" />
              <mxPoint x="60" y="870" />
              <mxPoint x="67" y="870" />
            </Array>
          </mxGeometry>
        </mxCell>
        <mxCell id="st-_w6ac-Qn8dqlOcEFm-46" value="crs_name" style="ellipse;whiteSpace=wrap;html=1;rounded=1;" parent="1" vertex="1">
          <mxGeometry x="17.5" y="890" width="100" height="45" as="geometry" />
        </mxCell>
        <mxCell id="st-_w6ac-Qn8dqlOcEFm-47" value="" style="edgeStyle=orthogonalEdgeStyle;rounded=0;orthogonalLoop=1;jettySize=auto;html=1;endArrow=none;endFill=0;exitX=0.25;exitY=1;exitDx=0;exitDy=0;curved=1;" parent="1" source="st-_w6ac-Qn8dqlOcEFm-43" target="st-_w6ac-Qn8dqlOcEFm-48" edge="1">
          <mxGeometry relative="1" as="geometry">
            <mxPoint x="-40" y="760" as="sourcePoint" />
          </mxGeometry>
        </mxCell>
        <mxCell id="st-_w6ac-Qn8dqlOcEFm-48" value="decription" style="ellipse;whiteSpace=wrap;html=1;rounded=1;" parent="1" vertex="1">
          <mxGeometry x="-127.5" y="845" width="80" height="45" as="geometry" />
        </mxCell>
        <mxCell id="st-_w6ac-Qn8dqlOcEFm-49" value="" style="edgeStyle=orthogonalEdgeStyle;rounded=0;orthogonalLoop=1;jettySize=auto;html=1;endArrow=none;endFill=0;exitX=0.25;exitY=1;exitDx=0;exitDy=0;curved=1;" parent="1" source="st-_w6ac-Qn8dqlOcEFm-43" target="st-_w6ac-Qn8dqlOcEFm-50" edge="1">
          <mxGeometry relative="1" as="geometry">
            <mxPoint x="-50" y="770" as="sourcePoint" />
          </mxGeometry>
        </mxCell>
        <mxCell id="st-_w6ac-Qn8dqlOcEFm-50" value="max_degree" style="ellipse;whiteSpace=wrap;html=1;rounded=1;" parent="1" vertex="1">
          <mxGeometry x="-92.5" y="902.5" width="80" height="45" as="geometry" />
        </mxCell>
        <mxCell id="st-_w6ac-Qn8dqlOcEFm-51" value="" style="edgeStyle=orthogonalEdgeStyle;rounded=0;orthogonalLoop=1;jettySize=auto;html=1;endArrow=none;endFill=0;curved=1;entryX=0.76;entryY=0.139;entryDx=0;entryDy=0;entryPerimeter=0;" parent="1" source="st-_w6ac-Qn8dqlOcEFm-43" target="st-_w6ac-Qn8dqlOcEFm-52" edge="1">
          <mxGeometry relative="1" as="geometry">
            <mxPoint x="20" y="830" as="sourcePoint" />
          </mxGeometry>
        </mxCell>
        <mxCell id="st-_w6ac-Qn8dqlOcEFm-52" value="min_degree" style="ellipse;whiteSpace=wrap;html=1;rounded=1;" parent="1" vertex="1">
          <mxGeometry x="-42.5" y="857.5" width="80" height="45" as="geometry" />
        </mxCell>
        <mxCell id="st-_w6ac-Qn8dqlOcEFm-53" value="Instructor" style="rounded=1;whiteSpace=wrap;html=1;" parent="1" vertex="1">
          <mxGeometry x="-470" y="735" width="120" height="50" as="geometry" />
        </mxCell>
        <mxCell id="st-_w6ac-Qn8dqlOcEFm-54" value="" style="edgeStyle=orthogonalEdgeStyle;rounded=0;orthogonalLoop=1;jettySize=auto;html=1;endArrow=none;endFill=0;entryX=0;entryY=0;entryDx=0;entryDy=0;" parent="1" source="st-_w6ac-Qn8dqlOcEFm-53" target="st-_w6ac-Qn8dqlOcEFm-55" edge="1">
          <mxGeometry relative="1" as="geometry">
            <mxPoint x="-460" y="717.5" as="sourcePoint" />
            <Array as="points">
              <mxPoint x="-370" y="857.5" />
              <mxPoint x="-350" y="857.5" />
            </Array>
          </mxGeometry>
        </mxCell>
        <mxCell id="st-_w6ac-Qn8dqlOcEFm-55" value="inst_name" style="ellipse;whiteSpace=wrap;html=1;rounded=1;" parent="1" vertex="1">
          <mxGeometry x="-365" y="857.5" width="100" height="45" as="geometry" />
        </mxCell>
        <mxCell id="st-_w6ac-Qn8dqlOcEFm-56" value="" style="edgeStyle=orthogonalEdgeStyle;rounded=0;orthogonalLoop=1;jettySize=auto;html=1;endArrow=none;endFill=0;exitX=0;exitY=0.5;exitDx=0;exitDy=0;" parent="1" source="st-_w6ac-Qn8dqlOcEFm-53" target="st-_w6ac-Qn8dqlOcEFm-57" edge="1">
          <mxGeometry relative="1" as="geometry">
            <mxPoint x="-450" y="757.5" as="sourcePoint" />
          </mxGeometry>
        </mxCell>
        <mxCell id="st-_w6ac-Qn8dqlOcEFm-57" value="email" style="ellipse;whiteSpace=wrap;html=1;rounded=1;" parent="1" vertex="1">
          <mxGeometry x="-560" y="837.5" width="80" height="45" as="geometry" />
        </mxCell>
        <mxCell id="st-_w6ac-Qn8dqlOcEFm-58" value="" style="rounded=0;orthogonalLoop=1;jettySize=auto;html=1;endArrow=none;endFill=0;exitX=0.5;exitY=1;exitDx=0;exitDy=0;edgeStyle=orthogonalEdgeStyle;curved=1;" parent="1" source="st-_w6ac-Qn8dqlOcEFm-53" target="st-_w6ac-Qn8dqlOcEFm-59" edge="1">
          <mxGeometry relative="1" as="geometry">
            <mxPoint x="-460" y="767.5" as="sourcePoint" />
          </mxGeometry>
        </mxCell>
        <mxCell id="st-_w6ac-Qn8dqlOcEFm-59" value="phone" style="ellipse;whiteSpace=wrap;html=1;rounded=1;" parent="1" vertex="1">
          <mxGeometry x="-470" y="857.5" width="80" height="45" as="geometry" />
        </mxCell>
        <mxCell id="st-_w6ac-Qn8dqlOcEFm-62" value="Track" style="rounded=1;whiteSpace=wrap;html=1;" parent="1" vertex="1">
          <mxGeometry x="-460" y="390" width="120" height="50" as="geometry" />
        </mxCell>
        <mxCell id="st-_w6ac-Qn8dqlOcEFm-63" value="" style="rounded=0;orthogonalLoop=1;jettySize=auto;html=1;endArrow=none;endFill=0;exitX=0;exitY=1;exitDx=0;exitDy=0;edgeStyle=orthogonalEdgeStyle;curved=1;" parent="1" source="st-_w6ac-Qn8dqlOcEFm-62" target="st-_w6ac-Qn8dqlOcEFm-64" edge="1">
          <mxGeometry relative="1" as="geometry">
            <mxPoint x="-450" y="375" as="sourcePoint" />
            <Array as="points">
              <mxPoint x="-480" y="441" />
            </Array>
          </mxGeometry>
        </mxCell>
        <mxCell id="st-_w6ac-Qn8dqlOcEFm-64" value="track_id" style="ellipse;whiteSpace=wrap;html=1;rounded=1;" parent="1" vertex="1">
          <mxGeometry x="-580" y="433" width="100" height="45" as="geometry" />
        </mxCell>
        <mxCell id="st-_w6ac-Qn8dqlOcEFm-67" value="" style="rounded=0;orthogonalLoop=1;jettySize=auto;html=1;endArrow=none;endFill=0;exitX=0.033;exitY=0.883;exitDx=0;exitDy=0;exitPerimeter=0;edgeStyle=orthogonalEdgeStyle;curved=1;entryX=1;entryY=0;entryDx=0;entryDy=0;" parent="1" source="st-_w6ac-Qn8dqlOcEFm-62" target="st-_w6ac-Qn8dqlOcEFm-68" edge="1">
          <mxGeometry relative="1" as="geometry">
            <mxPoint x="-420" y="502.5" as="sourcePoint" />
            <Array as="points">
              <mxPoint x="-460" y="434" />
              <mxPoint x="-460" y="470" />
              <mxPoint x="-480" y="470" />
              <mxPoint x="-480" y="492" />
            </Array>
          </mxGeometry>
        </mxCell>
        <mxCell id="st-_w6ac-Qn8dqlOcEFm-68" value="track_name" style="ellipse;whiteSpace=wrap;html=1;rounded=1;" parent="1" vertex="1">
          <mxGeometry x="-580" y="485" width="100" height="45" as="geometry" />
        </mxCell>
        <mxCell id="st-_w6ac-Qn8dqlOcEFm-69" value="Branch" style="rounded=1;whiteSpace=wrap;html=1;" parent="1" vertex="1">
          <mxGeometry x="-460" y="580" width="120" height="50" as="geometry" />
        </mxCell>
        <mxCell id="st-_w6ac-Qn8dqlOcEFm-70" value="" style="rounded=0;orthogonalLoop=1;jettySize=auto;html=1;endArrow=none;endFill=0;exitX=0;exitY=0.75;exitDx=0;exitDy=0;" parent="1" source="st-_w6ac-Qn8dqlOcEFm-69" target="st-_w6ac-Qn8dqlOcEFm-71" edge="1">
          <mxGeometry relative="1" as="geometry">
            <mxPoint x="-450" y="565" as="sourcePoint" />
          </mxGeometry>
        </mxCell>
        <mxCell id="st-_w6ac-Qn8dqlOcEFm-71" value="branch_id" style="ellipse;whiteSpace=wrap;html=1;rounded=1;" parent="1" vertex="1">
          <mxGeometry x="-610" y="620" width="100" height="45" as="geometry" />
        </mxCell>
        <mxCell id="st-_w6ac-Qn8dqlOcEFm-72" value="" style="rounded=0;orthogonalLoop=1;jettySize=auto;html=1;endArrow=none;endFill=0;exitX=0;exitY=1;exitDx=0;exitDy=0;" parent="1" source="st-_w6ac-Qn8dqlOcEFm-69" target="st-_w6ac-Qn8dqlOcEFm-73" edge="1">
          <mxGeometry relative="1" as="geometry">
            <mxPoint x="-420" y="692.5" as="sourcePoint" />
          </mxGeometry>
        </mxCell>
        <mxCell id="st-_w6ac-Qn8dqlOcEFm-73" value="branch_name" style="ellipse;whiteSpace=wrap;html=1;rounded=1;" parent="1" vertex="1">
          <mxGeometry x="-540" y="657.5" width="100" height="45" as="geometry" />
        </mxCell>
        <mxCell id="st-_w6ac-Qn8dqlOcEFm-74" value="Intake" style="rounded=1;whiteSpace=wrap;html=1;" parent="1" vertex="1">
          <mxGeometry x="-460" y="240" width="120" height="50" as="geometry" />
        </mxCell>
        <mxCell id="st-_w6ac-Qn8dqlOcEFm-75" value="" style="rounded=0;orthogonalLoop=1;jettySize=auto;html=1;endArrow=none;endFill=0;exitX=0.269;exitY=0.028;exitDx=0;exitDy=0;exitPerimeter=0;" parent="1" source="st-_w6ac-Qn8dqlOcEFm-74" target="st-_w6ac-Qn8dqlOcEFm-76" edge="1">
          <mxGeometry relative="1" as="geometry">
            <mxPoint x="-430" y="225" as="sourcePoint" />
          </mxGeometry>
        </mxCell>
        <mxCell id="st-_w6ac-Qn8dqlOcEFm-76" value="intake_id" style="ellipse;whiteSpace=wrap;html=1;rounded=1;" parent="1" vertex="1">
          <mxGeometry x="-525" y="147.5" width="100" height="45" as="geometry" />
        </mxCell>
        <mxCell id="st-_w6ac-Qn8dqlOcEFm-77" value="" style="rounded=0;orthogonalLoop=1;jettySize=auto;html=1;endArrow=none;endFill=0;exitX=0.75;exitY=0;exitDx=0;exitDy=0;" parent="1" source="st-_w6ac-Qn8dqlOcEFm-74" target="st-_w6ac-Qn8dqlOcEFm-78" edge="1">
          <mxGeometry relative="1" as="geometry">
            <mxPoint x="-400" y="352.5" as="sourcePoint" />
          </mxGeometry>
        </mxCell>
        <mxCell id="st-_w6ac-Qn8dqlOcEFm-78" value="intake_name" style="ellipse;whiteSpace=wrap;html=1;rounded=1;" parent="1" vertex="1">
          <mxGeometry x="-410" y="145" width="100" height="45" as="geometry" />
        </mxCell>
        <mxCell id="st-_w6ac-Qn8dqlOcEFm-79" value="Student" style="rounded=1;whiteSpace=wrap;html=1;" parent="1" vertex="1">
          <mxGeometry x="265.05" y="730" width="120" height="50" as="geometry" />
        </mxCell>
        <mxCell id="st-_w6ac-Qn8dqlOcEFm-80" value="" style="edgeStyle=orthogonalEdgeStyle;rounded=0;orthogonalLoop=1;jettySize=auto;html=1;endArrow=none;endFill=0;exitX=1;exitY=1;exitDx=0;exitDy=0;curved=1;entryX=1;entryY=0;entryDx=0;entryDy=0;" parent="1" source="st-_w6ac-Qn8dqlOcEFm-79" target="st-_w6ac-Qn8dqlOcEFm-81" edge="1">
          <mxGeometry relative="1" as="geometry">
            <mxPoint x="275.05" y="715" as="sourcePoint" />
            <Array as="points">
              <mxPoint x="385" y="820" />
              <mxPoint x="405" y="820" />
              <mxPoint x="405" y="934" />
              <mxPoint x="470" y="934" />
            </Array>
          </mxGeometry>
        </mxCell>
        <mxCell id="st-_w6ac-Qn8dqlOcEFm-81" value="address" style="ellipse;whiteSpace=wrap;html=1;rounded=1;" parent="1" vertex="1">
          <mxGeometry x="385.05" y="915" width="100" height="45" as="geometry" />
        </mxCell>
        <mxCell id="st-_w6ac-Qn8dqlOcEFm-82" value="" style="edgeStyle=orthogonalEdgeStyle;rounded=0;orthogonalLoop=1;jettySize=auto;html=1;endArrow=none;endFill=0;exitX=0.25;exitY=1;exitDx=0;exitDy=0;curved=1;entryX=0.5;entryY=0;entryDx=0;entryDy=0;" parent="1" source="st-_w6ac-Qn8dqlOcEFm-79" target="st-_w6ac-Qn8dqlOcEFm-83" edge="1">
          <mxGeometry relative="1" as="geometry">
            <mxPoint x="285.05" y="755" as="sourcePoint" />
            <Array as="points">
              <mxPoint x="290" y="780" />
              <mxPoint x="290" y="824" />
              <mxPoint x="300" y="824" />
              <mxPoint x="300" y="910" />
            </Array>
          </mxGeometry>
        </mxCell>
        <mxCell id="st-_w6ac-Qn8dqlOcEFm-83" value="f_name" style="ellipse;whiteSpace=wrap;html=1;rounded=1;" parent="1" vertex="1">
          <mxGeometry x="250" y="910" width="80" height="45" as="geometry" />
        </mxCell>
        <mxCell id="st-_w6ac-Qn8dqlOcEFm-84" value="" style="edgeStyle=orthogonalEdgeStyle;rounded=0;orthogonalLoop=1;jettySize=auto;html=1;endArrow=none;endFill=0;exitX=0.333;exitY=0.96;exitDx=0;exitDy=0;exitPerimeter=0;curved=1;" parent="1" source="st-_w6ac-Qn8dqlOcEFm-79" target="st-_w6ac-Qn8dqlOcEFm-85" edge="1">
          <mxGeometry relative="1" as="geometry">
            <mxPoint x="275.05" y="765" as="sourcePoint" />
            <Array as="points">
              <mxPoint x="305" y="865" />
              <mxPoint x="330" y="865" />
            </Array>
          </mxGeometry>
        </mxCell>
        <mxCell id="st-_w6ac-Qn8dqlOcEFm-85" value="l_name" style="ellipse;whiteSpace=wrap;html=1;rounded=1;" parent="1" vertex="1">
          <mxGeometry x="320" y="950" width="80" height="45" as="geometry" />
        </mxCell>
        <mxCell id="st-_w6ac-Qn8dqlOcEFm-86" value="" style="edgeStyle=orthogonalEdgeStyle;rounded=0;orthogonalLoop=1;jettySize=auto;html=1;endArrow=none;endFill=0;curved=1;" parent="1" source="st-_w6ac-Qn8dqlOcEFm-79" target="st-_w6ac-Qn8dqlOcEFm-87" edge="1">
          <mxGeometry relative="1" as="geometry">
            <mxPoint x="345.05" y="825" as="sourcePoint" />
            <Array as="points">
              <mxPoint x="345.05" y="807.5" />
              <mxPoint x="345.05" y="807.5" />
            </Array>
          </mxGeometry>
        </mxCell>
        <mxCell id="st-_w6ac-Qn8dqlOcEFm-87" value="age" style="ellipse;whiteSpace=wrap;html=1;rounded=1;" parent="1" vertex="1">
          <mxGeometry x="330" y="870" width="80" height="45" as="geometry" />
        </mxCell>
        <mxCell id="st-_w6ac-Qn8dqlOcEFm-88" value="" style="edgeStyle=orthogonalEdgeStyle;rounded=0;orthogonalLoop=1;jettySize=auto;html=1;endArrow=none;endFill=0;curved=1;exitX=1;exitY=1;exitDx=0;exitDy=0;" parent="1" source="st-_w6ac-Qn8dqlOcEFm-79" target="st-_w6ac-Qn8dqlOcEFm-89" edge="1">
          <mxGeometry relative="1" as="geometry">
            <mxPoint x="535.05" y="780" as="sourcePoint" />
            <Array as="points">
              <mxPoint x="385" y="820" />
              <mxPoint x="540" y="820" />
            </Array>
          </mxGeometry>
        </mxCell>
        <mxCell id="st-_w6ac-Qn8dqlOcEFm-89" value="email" style="ellipse;whiteSpace=wrap;html=1;rounded=1;" parent="1" vertex="1">
          <mxGeometry x="499.99999999999994" y="940" width="80" height="45" as="geometry" />
        </mxCell>
        <mxCell id="st-_w6ac-Qn8dqlOcEFm-90" value="" style="edgeStyle=orthogonalEdgeStyle;rounded=0;orthogonalLoop=1;jettySize=auto;html=1;endArrow=none;endFill=0;curved=1;exitX=1;exitY=1;exitDx=0;exitDy=0;" parent="1" source="st-_w6ac-Qn8dqlOcEFm-79" target="st-_w6ac-Qn8dqlOcEFm-91" edge="1">
          <mxGeometry relative="1" as="geometry">
            <mxPoint x="465.05" y="855.5" as="sourcePoint" />
          </mxGeometry>
        </mxCell>
        <mxCell id="st-_w6ac-Qn8dqlOcEFm-91" value="phone" style="ellipse;whiteSpace=wrap;html=1;rounded=1;" parent="1" vertex="1">
          <mxGeometry x="445" y="865" width="80" height="45" as="geometry" />
        </mxCell>
        <mxCell id="st-_w6ac-Qn8dqlOcEFm-102" value="StudentAnswer" style="rounded=1;whiteSpace=wrap;html=1;" parent="1" vertex="1">
          <mxGeometry x="685" y="730" width="120" height="50" as="geometry" />
        </mxCell>
        <mxCell id="st-_w6ac-Qn8dqlOcEFm-103" value="" style="edgeStyle=orthogonalEdgeStyle;rounded=0;orthogonalLoop=1;jettySize=auto;html=1;endArrow=none;endFill=0;exitX=0.75;exitY=1;exitDx=0;exitDy=0;curved=1;" parent="1" source="st-_w6ac-Qn8dqlOcEFm-102" target="st-_w6ac-Qn8dqlOcEFm-104" edge="1">
          <mxGeometry relative="1" as="geometry">
            <mxPoint x="695" y="715" as="sourcePoint" />
            <Array as="points">
              <mxPoint x="775" y="817.5" />
              <mxPoint x="825" y="817.5" />
            </Array>
          </mxGeometry>
        </mxCell>
        <mxCell id="st-_w6ac-Qn8dqlOcEFm-104" value="mcq_answer" style="ellipse;whiteSpace=wrap;html=1;rounded=1;" parent="1" vertex="1">
          <mxGeometry x="775" y="852.5" width="100" height="45" as="geometry" />
        </mxCell>
        <mxCell id="st-_w6ac-Qn8dqlOcEFm-105" value="" style="edgeStyle=orthogonalEdgeStyle;rounded=0;orthogonalLoop=1;jettySize=auto;html=1;endArrow=none;endFill=0;exitX=0.035;exitY=0.964;exitDx=0;exitDy=0;exitPerimeter=0;" parent="1" source="st-_w6ac-Qn8dqlOcEFm-102" target="st-_w6ac-Qn8dqlOcEFm-106" edge="1">
          <mxGeometry relative="1" as="geometry">
            <mxPoint x="705" y="755" as="sourcePoint" />
            <Array as="points">
              <mxPoint x="685" y="778" />
              <mxPoint x="685" y="780" />
              <mxPoint x="635" y="780" />
            </Array>
          </mxGeometry>
        </mxCell>
        <mxCell id="st-_w6ac-Qn8dqlOcEFm-106" value="answer_id" style="ellipse;whiteSpace=wrap;html=1;rounded=1;" parent="1" vertex="1">
          <mxGeometry x="595" y="845" width="80" height="45" as="geometry" />
        </mxCell>
        <mxCell id="st-_w6ac-Qn8dqlOcEFm-107" value="" style="edgeStyle=orthogonalEdgeStyle;rounded=0;orthogonalLoop=1;jettySize=auto;html=1;endArrow=none;endFill=0;exitX=0.333;exitY=0.96;exitDx=0;exitDy=0;exitPerimeter=0;curved=1;" parent="1" source="st-_w6ac-Qn8dqlOcEFm-102" target="st-_w6ac-Qn8dqlOcEFm-108" edge="1">
          <mxGeometry relative="1" as="geometry">
            <mxPoint x="695" y="765" as="sourcePoint" />
          </mxGeometry>
        </mxCell>
        <mxCell id="st-_w6ac-Qn8dqlOcEFm-108" value="text_answer" style="ellipse;whiteSpace=wrap;html=1;rounded=1;" parent="1" vertex="1">
          <mxGeometry x="645" y="890" width="80" height="45" as="geometry" />
        </mxCell>
        <mxCell id="st-_w6ac-Qn8dqlOcEFm-109" value="" style="edgeStyle=orthogonalEdgeStyle;rounded=0;orthogonalLoop=1;jettySize=auto;html=1;endArrow=none;endFill=0;" parent="1" source="st-_w6ac-Qn8dqlOcEFm-102" target="st-_w6ac-Qn8dqlOcEFm-110" edge="1">
          <mxGeometry relative="1" as="geometry">
            <mxPoint x="765" y="825" as="sourcePoint" />
          </mxGeometry>
        </mxCell>
        <mxCell id="st-_w6ac-Qn8dqlOcEFm-110" value="tf_answer" style="ellipse;whiteSpace=wrap;html=1;rounded=1;" parent="1" vertex="1">
          <mxGeometry x="725" y="910" width="80" height="45" as="geometry" />
        </mxCell>
        <mxCell id="st-_w6ac-Qn8dqlOcEFm-114" value="" style="edgeStyle=orthogonalEdgeStyle;rounded=0;orthogonalLoop=1;jettySize=auto;html=1;endArrow=none;endFill=0;curved=1;entryX=0.5;entryY=0;entryDx=0;entryDy=0;exitX=0;exitY=1;exitDx=0;exitDy=0;" parent="1" source="st-_w6ac-Qn8dqlOcEFm-79" target="st-_w6ac-Qn8dqlOcEFm-115" edge="1">
          <mxGeometry relative="1" as="geometry">
            <mxPoint x="260.05" y="751.95" as="sourcePoint" />
            <Array as="points">
              <mxPoint x="265" y="825" />
              <mxPoint x="245" y="825" />
            </Array>
            <mxPoint x="190.09761904761882" y="824.9962344585417" as="targetPoint" />
          </mxGeometry>
        </mxCell>
        <mxCell id="st-_w6ac-Qn8dqlOcEFm-115" value="std_id" style="ellipse;whiteSpace=wrap;html=1;rounded=1;" parent="1" vertex="1">
          <mxGeometry x="220" y="857.5" width="80" height="45" as="geometry" />
        </mxCell>
        <mxCell id="st-_w6ac-Qn8dqlOcEFm-116" value="" style="edgeStyle=orthogonalEdgeStyle;rounded=0;orthogonalLoop=1;jettySize=auto;html=1;endArrow=none;endFill=0;exitX=1;exitY=1;exitDx=0;exitDy=0;curved=1;" parent="1" source="st-_w6ac-Qn8dqlOcEFm-102" target="st-_w6ac-Qn8dqlOcEFm-117" edge="1">
          <mxGeometry relative="1" as="geometry">
            <mxPoint x="845" y="735" as="sourcePoint" />
            <Array as="points">
              <mxPoint x="805" y="790" />
              <mxPoint x="845" y="790" />
              <mxPoint x="845" y="800" />
              <mxPoint x="895" y="800" />
            </Array>
          </mxGeometry>
        </mxCell>
        <mxCell id="st-_w6ac-Qn8dqlOcEFm-117" value="is_correct" style="ellipse;whiteSpace=wrap;html=1;rounded=1;" parent="1" vertex="1">
          <mxGeometry x="845" y="897.5" width="100" height="45" as="geometry" />
        </mxCell>
        <mxCell id="st-_w6ac-Qn8dqlOcEFm-119" value="" style="edgeStyle=orthogonalEdgeStyle;rounded=0;orthogonalLoop=1;jettySize=auto;html=1;endArrow=none;endFill=0;" parent="1" source="st-_w6ac-Qn8dqlOcEFm-33" target="st-_w6ac-Qn8dqlOcEFm-120" edge="1">
          <mxGeometry relative="1" as="geometry">
            <mxPoint x="1250" y="580" as="sourcePoint" />
            <Array as="points">
              <mxPoint x="1220" y="515" />
              <mxPoint x="1220" y="515" />
            </Array>
          </mxGeometry>
        </mxCell>
        <mxCell id="st-_w6ac-Qn8dqlOcEFm-120" value="id" style="ellipse;whiteSpace=wrap;html=1;rounded=1;" parent="1" vertex="1">
          <mxGeometry x="1230" y="495" width="80" height="45" as="geometry" />
        </mxCell>
        <mxCell id="st-_w6ac-Qn8dqlOcEFm-121" value="" style="edgeStyle=orthogonalEdgeStyle;rounded=0;orthogonalLoop=1;jettySize=auto;html=1;endArrow=none;endFill=0;curved=1;exitX=0.5;exitY=0;exitDx=0;exitDy=0;entryX=1;entryY=1;entryDx=0;entryDy=0;" parent="1" source="st-_w6ac-Qn8dqlOcEFm-26" target="st-_w6ac-Qn8dqlOcEFm-122" edge="1">
          <mxGeometry relative="1" as="geometry">
            <mxPoint x="570" y="230" as="sourcePoint" />
            <Array as="points">
              <mxPoint x="650" y="200" />
              <mxPoint x="660" y="200" />
              <mxPoint x="660" y="148" />
            </Array>
          </mxGeometry>
        </mxCell>
        <mxCell id="st-_w6ac-Qn8dqlOcEFm-122" value="&lt;u&gt;ques_id&lt;/u&gt;" style="ellipse;whiteSpace=wrap;html=1;rounded=1;" parent="1" vertex="1">
          <mxGeometry x="625" y="115" width="100" height="45" as="geometry" />
        </mxCell>
        <mxCell id="st-_w6ac-Qn8dqlOcEFm-123" value="" style="edgeStyle=orthogonalEdgeStyle;rounded=0;orthogonalLoop=1;jettySize=auto;html=1;endArrow=none;endFill=0;curved=1;" parent="1" target="st-_w6ac-Qn8dqlOcEFm-124" edge="1">
          <mxGeometry relative="1" as="geometry">
            <mxPoint x="65" y="267.5" as="sourcePoint" />
          </mxGeometry>
        </mxCell>
        <mxCell id="st-_w6ac-Qn8dqlOcEFm-124" value="&lt;u&gt;exam_id&lt;/u&gt;" style="ellipse;whiteSpace=wrap;html=1;rounded=1;" parent="1" vertex="1">
          <mxGeometry x="-115" y="177.5" width="80" height="40" as="geometry" />
        </mxCell>
        <mxCell id="st-_w6ac-Qn8dqlOcEFm-125" value="" style="edgeStyle=orthogonalEdgeStyle;rounded=0;orthogonalLoop=1;jettySize=auto;html=1;endArrow=none;endFill=0;exitX=0;exitY=0.25;exitDx=0;exitDy=0;curved=1;" parent="1" source="st-_w6ac-Qn8dqlOcEFm-53" target="st-_w6ac-Qn8dqlOcEFm-126" edge="1">
          <mxGeometry relative="1" as="geometry">
            <mxPoint x="-500" y="722.5" as="sourcePoint" />
            <Array as="points">
              <mxPoint x="-470" y="735.5" />
            </Array>
          </mxGeometry>
        </mxCell>
        <mxCell id="st-_w6ac-Qn8dqlOcEFm-126" value="&lt;u&gt;inst_id&lt;/u&gt;" style="ellipse;whiteSpace=wrap;html=1;rounded=1;" parent="1" vertex="1">
          <mxGeometry x="-630" y="758" width="100" height="45" as="geometry" />
        </mxCell>
        <mxCell id="st-_w6ac-Qn8dqlOcEFm-127" value="" style="edgeStyle=orthogonalEdgeStyle;rounded=0;orthogonalLoop=1;jettySize=auto;html=1;endArrow=none;endFill=0;exitX=0.5;exitY=0;exitDx=0;exitDy=0;" parent="1" source="st-_w6ac-Qn8dqlOcEFm-38" target="st-_w6ac-Qn8dqlOcEFm-128" edge="1">
          <mxGeometry relative="1" as="geometry">
            <mxPoint x="1115" y="240" as="sourcePoint" />
            <Array as="points">
              <mxPoint x="1115" y="240" />
            </Array>
          </mxGeometry>
        </mxCell>
        <mxCell id="st-_w6ac-Qn8dqlOcEFm-128" value="&lt;u&gt;id&lt;/u&gt;" style="ellipse;whiteSpace=wrap;html=1;rounded=1;" parent="1" vertex="1">
          <mxGeometry x="1065" y="140" width="100" height="45" as="geometry" />
        </mxCell>
        <mxCell id="st-_w6ac-Qn8dqlOcEFm-131" style="edgeStyle=orthogonalEdgeStyle;rounded=0;orthogonalLoop=1;jettySize=auto;html=1;endArrow=none;endFill=0;shape=link;" parent="1" source="st-_w6ac-Qn8dqlOcEFm-129" target="st-_w6ac-Qn8dqlOcEFm-33" edge="1">
          <mxGeometry relative="1" as="geometry" />
        </mxCell>
        <mxCell id="st-_w6ac-Qn8dqlOcEFm-129" value="has" style="rhombus;whiteSpace=wrap;html=1;rounded=1;" parent="1" vertex="1">
          <mxGeometry x="890" y="470" width="80" height="80" as="geometry" />
        </mxCell>
        <mxCell id="st-_w6ac-Qn8dqlOcEFm-132" value="1" style="text;html=1;align=center;verticalAlign=middle;resizable=0;points=[];autosize=1;strokeColor=none;fillColor=none;" parent="1" vertex="1">
          <mxGeometry x="685" y="287.5" width="30" height="30" as="geometry" />
        </mxCell>
        <mxCell id="st-_w6ac-Qn8dqlOcEFm-133" value="M" style="text;html=1;align=center;verticalAlign=middle;resizable=0;points=[];autosize=1;strokeColor=none;fillColor=none;" parent="1" vertex="1">
          <mxGeometry x="1015" y="478" width="30" height="30" as="geometry" />
        </mxCell>
        <mxCell id="st-_w6ac-Qn8dqlOcEFm-134" value="" style="edgeStyle=orthogonalEdgeStyle;rounded=0;orthogonalLoop=1;jettySize=auto;html=1;endArrow=none;endFill=0;shape=link;exitX=1;exitY=0.5;exitDx=0;exitDy=0;" parent="1" source="st-_w6ac-Qn8dqlOcEFm-26" target="st-_w6ac-Qn8dqlOcEFm-136" edge="1">
          <mxGeometry relative="1" as="geometry">
            <mxPoint x="650" y="52" as="sourcePoint" />
            <Array as="points">
              <mxPoint x="810" y="265" />
              <mxPoint x="810" y="265" />
            </Array>
          </mxGeometry>
        </mxCell>
        <mxCell id="st-_w6ac-Qn8dqlOcEFm-135" style="edgeStyle=orthogonalEdgeStyle;rounded=0;orthogonalLoop=1;jettySize=auto;html=1;endArrow=none;endFill=0;" parent="1" source="st-_w6ac-Qn8dqlOcEFm-136" edge="1">
          <mxGeometry relative="1" as="geometry">
            <mxPoint x="1050" y="272" as="targetPoint" />
            <Array as="points">
              <mxPoint x="1050" y="265" />
            </Array>
          </mxGeometry>
        </mxCell>
        <mxCell id="st-_w6ac-Qn8dqlOcEFm-136" value="has" style="rhombus;whiteSpace=wrap;html=1;rounded=1;" parent="1" vertex="1">
          <mxGeometry x="865" y="225" width="80" height="80" as="geometry" />
        </mxCell>
        <mxCell id="st-_w6ac-Qn8dqlOcEFm-137" value="1" style="text;html=1;align=center;verticalAlign=middle;resizable=0;points=[];autosize=1;strokeColor=none;fillColor=none;" parent="1" vertex="1">
          <mxGeometry x="1020" y="240" width="30" height="30" as="geometry" />
        </mxCell>
        <mxCell id="st-_w6ac-Qn8dqlOcEFm-138" value="M" style="text;html=1;align=center;verticalAlign=middle;resizable=0;points=[];autosize=1;strokeColor=none;fillColor=none;" parent="1" vertex="1">
          <mxGeometry x="710" y="240" width="30" height="30" as="geometry" />
        </mxCell>
        <mxCell id="st-_w6ac-Qn8dqlOcEFm-143" value="" style="edgeStyle=orthogonalEdgeStyle;rounded=0;orthogonalLoop=1;jettySize=auto;html=1;endArrow=none;endFill=0;shape=link;" parent="1" source="st-_w6ac-Qn8dqlOcEFm-1" target="st-_w6ac-Qn8dqlOcEFm-145" edge="1">
          <mxGeometry relative="1" as="geometry">
            <mxPoint x="210" y="270" as="sourcePoint" />
            <Array as="points">
              <mxPoint x="320" y="268" />
              <mxPoint x="320" y="268" />
            </Array>
          </mxGeometry>
        </mxCell>
        <mxCell id="st-_w6ac-Qn8dqlOcEFm-144" style="edgeStyle=orthogonalEdgeStyle;rounded=0;orthogonalLoop=1;jettySize=auto;html=1;endArrow=none;endFill=0;entryX=0;entryY=0.5;entryDx=0;entryDy=0;" parent="1" source="st-_w6ac-Qn8dqlOcEFm-145" target="st-_w6ac-Qn8dqlOcEFm-26" edge="1">
          <mxGeometry relative="1" as="geometry">
            <mxPoint x="550" y="320" as="targetPoint" />
            <Array as="points">
              <mxPoint x="500" y="265" />
              <mxPoint x="500" y="265" />
            </Array>
          </mxGeometry>
        </mxCell>
        <mxCell id="st-_w6ac-Qn8dqlOcEFm-145" value="has" style="rhombus;whiteSpace=wrap;html=1;rounded=1;" parent="1" vertex="1">
          <mxGeometry x="365" y="225" width="80" height="80" as="geometry" />
        </mxCell>
        <mxCell id="st-_w6ac-Qn8dqlOcEFm-146" value="N" style="text;html=1;align=center;verticalAlign=middle;resizable=0;points=[];autosize=1;strokeColor=none;fillColor=none;" parent="1" vertex="1">
          <mxGeometry x="560" y="245" width="30" height="30" as="geometry" />
        </mxCell>
        <mxCell id="st-_w6ac-Qn8dqlOcEFm-147" value="M" style="text;html=1;align=center;verticalAlign=middle;resizable=0;points=[];autosize=1;strokeColor=none;fillColor=none;" parent="1" vertex="1">
          <mxGeometry x="180" y="245" width="30" height="30" as="geometry" />
        </mxCell>
        <mxCell id="st-_w6ac-Qn8dqlOcEFm-149" value="" style="edgeStyle=orthogonalEdgeStyle;rounded=0;orthogonalLoop=1;jettySize=auto;html=1;endArrow=none;endFill=0;shape=link;exitX=1;exitY=1;exitDx=0;exitDy=0;" parent="1" source="st-_w6ac-Qn8dqlOcEFm-1" target="st-_w6ac-Qn8dqlOcEFm-151" edge="1">
          <mxGeometry relative="1" as="geometry">
            <mxPoint x="120" y="320" as="sourcePoint" />
          </mxGeometry>
        </mxCell>
        <mxCell id="st-_w6ac-Qn8dqlOcEFm-150" style="edgeStyle=orthogonalEdgeStyle;rounded=0;orthogonalLoop=1;jettySize=auto;html=1;endArrow=none;endFill=0;shape=link;entryX=0;entryY=0;entryDx=0;entryDy=0;" parent="1" source="st-_w6ac-Qn8dqlOcEFm-151" target="st-_w6ac-Qn8dqlOcEFm-102" edge="1">
          <mxGeometry relative="1" as="geometry">
            <mxPoint x="520" y="540" as="targetPoint" />
            <Array as="points">
              <mxPoint x="685" y="580" />
            </Array>
          </mxGeometry>
        </mxCell>
        <mxCell id="st-_w6ac-Qn8dqlOcEFm-151" value="has" style="rhombus;whiteSpace=wrap;html=1;rounded=1;" parent="1" vertex="1">
          <mxGeometry x="135" y="425" width="80" height="80" as="geometry" />
        </mxCell>
        <mxCell id="st-_w6ac-Qn8dqlOcEFm-152" value="M" style="text;html=1;align=center;verticalAlign=middle;resizable=0;points=[];autosize=1;strokeColor=none;fillColor=none;" parent="1" vertex="1">
          <mxGeometry x="150" y="287.5" width="30" height="30" as="geometry" />
        </mxCell>
        <mxCell id="st-_w6ac-Qn8dqlOcEFm-153" value="N" style="text;html=1;align=center;verticalAlign=middle;resizable=0;points=[];autosize=1;strokeColor=none;fillColor=none;" parent="1" vertex="1">
          <mxGeometry x="685" y="702.5" width="30" height="30" as="geometry" />
        </mxCell>
        <mxCell id="st-_w6ac-Qn8dqlOcEFm-157" value="" style="edgeStyle=orthogonalEdgeStyle;rounded=0;orthogonalLoop=1;jettySize=auto;html=1;endArrow=none;endFill=0;exitX=0.5;exitY=1;exitDx=0;exitDy=0;" parent="1" source="st-_w6ac-Qn8dqlOcEFm-26" target="st-_w6ac-Qn8dqlOcEFm-159" edge="1">
          <mxGeometry relative="1" as="geometry">
            <mxPoint x="547.5" y="353.75" as="sourcePoint" />
            <Array as="points">
              <mxPoint x="650" y="394" />
              <mxPoint x="745" y="394" />
            </Array>
          </mxGeometry>
        </mxCell>
        <mxCell id="st-_w6ac-Qn8dqlOcEFm-164" style="edgeStyle=orthogonalEdgeStyle;rounded=0;orthogonalLoop=1;jettySize=auto;html=1;entryX=0.5;entryY=0;entryDx=0;entryDy=0;shape=link;" parent="1" source="st-_w6ac-Qn8dqlOcEFm-159" target="st-_w6ac-Qn8dqlOcEFm-102" edge="1">
          <mxGeometry relative="1" as="geometry" />
        </mxCell>
        <mxCell id="st-_w6ac-Qn8dqlOcEFm-159" value="has" style="rhombus;whiteSpace=wrap;html=1;rounded=1;" parent="1" vertex="1">
          <mxGeometry x="705" y="540" width="80" height="80" as="geometry" />
        </mxCell>
        <mxCell id="st-_w6ac-Qn8dqlOcEFm-160" value="1" style="text;html=1;align=center;verticalAlign=middle;resizable=0;points=[];autosize=1;strokeColor=none;fillColor=none;" parent="1" vertex="1">
          <mxGeometry x="620" y="290" width="30" height="30" as="geometry" />
        </mxCell>
        <mxCell id="st-_w6ac-Qn8dqlOcEFm-161" value="M" style="text;html=1;align=center;verticalAlign=middle;resizable=0;points=[];autosize=1;strokeColor=none;fillColor=none;" parent="1" vertex="1">
          <mxGeometry x="745" y="702.5" width="30" height="30" as="geometry" />
        </mxCell>
        <mxCell id="st-_w6ac-Qn8dqlOcEFm-172" style="edgeStyle=orthogonalEdgeStyle;rounded=0;orthogonalLoop=1;jettySize=auto;html=1;exitX=0.5;exitY=0;exitDx=0;exitDy=0;entryX=0.25;entryY=1;entryDx=0;entryDy=0;shape=link;" parent="1" source="st-_w6ac-Qn8dqlOcEFm-167" target="st-_w6ac-Qn8dqlOcEFm-1" edge="1">
          <mxGeometry relative="1" as="geometry">
            <mxPoint x="-20" y="410" as="targetPoint" />
            <Array as="points">
              <mxPoint x="95" y="288" />
            </Array>
          </mxGeometry>
        </mxCell>
        <mxCell id="st-_w6ac-Qn8dqlOcEFm-173" style="edgeStyle=orthogonalEdgeStyle;rounded=0;orthogonalLoop=1;jettySize=auto;html=1;entryX=0.5;entryY=0;entryDx=0;entryDy=0;endArrow=none;endFill=0;" parent="1" source="st-_w6ac-Qn8dqlOcEFm-167" target="st-_w6ac-Qn8dqlOcEFm-79" edge="1">
          <mxGeometry relative="1" as="geometry">
            <Array as="points">
              <mxPoint x="95" y="630" />
              <mxPoint x="325" y="630" />
            </Array>
          </mxGeometry>
        </mxCell>
        <mxCell id="st-_w6ac-Qn8dqlOcEFm-167" value="has" style="rhombus;whiteSpace=wrap;html=1;rounded=1;" parent="1" vertex="1">
          <mxGeometry x="55" y="425" width="80" height="80" as="geometry" />
        </mxCell>
        <mxCell id="st-_w6ac-Qn8dqlOcEFm-168" value="M" style="text;html=1;align=center;verticalAlign=middle;resizable=0;points=[];autosize=1;strokeColor=none;fillColor=none;" parent="1" vertex="1">
          <mxGeometry x="100" y="287.5" width="30" height="30" as="geometry" />
        </mxCell>
        <mxCell id="st-_w6ac-Qn8dqlOcEFm-174" value="N" style="text;html=1;align=center;verticalAlign=middle;resizable=0;points=[];autosize=1;strokeColor=none;fillColor=none;" parent="1" vertex="1">
          <mxGeometry x="300" y="702.5" width="30" height="30" as="geometry" />
        </mxCell>
        <mxCell id="st-_w6ac-Qn8dqlOcEFm-179" style="edgeStyle=orthogonalEdgeStyle;rounded=0;orthogonalLoop=1;jettySize=auto;html=1;endArrow=none;endFill=0;entryX=1;entryY=0.5;entryDx=0;entryDy=0;" parent="1" source="st-_w6ac-Qn8dqlOcEFm-177" target="st-_w6ac-Qn8dqlOcEFm-74" edge="1">
          <mxGeometry relative="1" as="geometry">
            <mxPoint x="-320" y="267" as="targetPoint" />
            <Array as="points">
              <mxPoint x="-230" y="265" />
              <mxPoint x="-230" y="265" />
            </Array>
          </mxGeometry>
        </mxCell>
        <mxCell id="st-_w6ac-Qn8dqlOcEFm-177" value="has" style="rhombus;whiteSpace=wrap;html=1;rounded=1;" parent="1" vertex="1">
          <mxGeometry x="-195" y="227.5" width="80" height="80" as="geometry" />
        </mxCell>
        <mxCell id="st-_w6ac-Qn8dqlOcEFm-180" value="M" style="text;html=1;align=center;verticalAlign=middle;resizable=0;points=[];autosize=1;strokeColor=none;fillColor=none;" parent="1" vertex="1">
          <mxGeometry x="25" y="268" width="30" height="30" as="geometry" />
        </mxCell>
        <mxCell id="st-_w6ac-Qn8dqlOcEFm-181" value="1" style="text;html=1;align=center;verticalAlign=middle;resizable=0;points=[];autosize=1;strokeColor=none;fillColor=none;" parent="1" vertex="1">
          <mxGeometry x="-320" y="268" width="30" height="30" as="geometry" />
        </mxCell>
        <mxCell id="st-_w6ac-Qn8dqlOcEFm-202" value="" style="edgeStyle=orthogonalEdgeStyle;rounded=0;orthogonalLoop=1;jettySize=auto;html=1;shape=link;exitX=0;exitY=0.5;exitDx=0;exitDy=0;" parent="1" source="st-_w6ac-Qn8dqlOcEFm-1" target="st-_w6ac-Qn8dqlOcEFm-204" edge="1">
          <mxGeometry relative="1" as="geometry">
            <mxPoint x="65" y="415.5" as="sourcePoint" />
            <Array as="points">
              <mxPoint x="-60" y="268" />
              <mxPoint x="-60" y="415" />
            </Array>
          </mxGeometry>
        </mxCell>
        <mxCell id="st-_w6ac-Qn8dqlOcEFm-203" style="edgeStyle=orthogonalEdgeStyle;rounded=0;orthogonalLoop=1;jettySize=auto;html=1;endArrow=none;endFill=0;" parent="1" source="st-_w6ac-Qn8dqlOcEFm-204" target="st-_w6ac-Qn8dqlOcEFm-62" edge="1">
          <mxGeometry relative="1" as="geometry">
            <mxPoint x="-340" y="415.5" as="targetPoint" />
          </mxGeometry>
        </mxCell>
        <mxCell id="st-_w6ac-Qn8dqlOcEFm-204" value="has" style="rhombus;whiteSpace=wrap;html=1;rounded=1;" parent="1" vertex="1">
          <mxGeometry x="-195" y="375" width="80" height="80" as="geometry" />
        </mxCell>
        <mxCell id="st-_w6ac-Qn8dqlOcEFm-206" value="1" style="text;html=1;align=center;verticalAlign=middle;resizable=0;points=[];autosize=1;strokeColor=none;fillColor=none;" parent="1" vertex="1">
          <mxGeometry x="-340" y="415.5" width="30" height="30" as="geometry" />
        </mxCell>
        <mxCell id="st-_w6ac-Qn8dqlOcEFm-208" value="" style="edgeStyle=orthogonalEdgeStyle;rounded=0;orthogonalLoop=1;jettySize=auto;html=1;shape=link;exitX=0;exitY=0.5;exitDx=0;exitDy=0;entryX=1;entryY=0.5;entryDx=0;entryDy=0;" parent="1" source="st-_w6ac-Qn8dqlOcEFm-1" target="st-_w6ac-Qn8dqlOcEFm-210" edge="1">
          <mxGeometry relative="1" as="geometry">
            <mxPoint x="65" y="416.5" as="sourcePoint" />
            <Array as="points">
              <mxPoint x="-60" y="267" />
              <mxPoint x="-60" y="600" />
              <mxPoint x="-115" y="600" />
            </Array>
          </mxGeometry>
        </mxCell>
        <mxCell id="st-_w6ac-Qn8dqlOcEFm-209" style="edgeStyle=orthogonalEdgeStyle;rounded=0;orthogonalLoop=1;jettySize=auto;html=1;endArrow=none;endFill=0;entryX=1;entryY=0.5;entryDx=0;entryDy=0;" parent="1" source="st-_w6ac-Qn8dqlOcEFm-210" target="st-_w6ac-Qn8dqlOcEFm-69" edge="1">
          <mxGeometry relative="1" as="geometry">
            <mxPoint x="-340" y="595" as="targetPoint" />
            <Array as="points">
              <mxPoint x="-340" y="600" />
            </Array>
          </mxGeometry>
        </mxCell>
        <mxCell id="st-_w6ac-Qn8dqlOcEFm-210" value="has" style="rhombus;whiteSpace=wrap;html=1;rounded=1;" parent="1" vertex="1">
          <mxGeometry x="-207.5" y="560" width="80" height="80" as="geometry" />
        </mxCell>
        <mxCell id="st-_w6ac-Qn8dqlOcEFm-211" value="1" style="text;html=1;align=center;verticalAlign=middle;resizable=0;points=[];autosize=1;strokeColor=none;fillColor=none;" parent="1" vertex="1">
          <mxGeometry x="-340" y="604" width="30" height="30" as="geometry" />
        </mxCell>
        <mxCell id="st-_w6ac-Qn8dqlOcEFm-213" value="" style="edgeStyle=orthogonalEdgeStyle;rounded=0;orthogonalLoop=1;jettySize=auto;html=1;shape=link;exitX=0;exitY=0.5;exitDx=0;exitDy=0;" parent="1" source="st-_w6ac-Qn8dqlOcEFm-1" target="st-_w6ac-Qn8dqlOcEFm-215" edge="1">
          <mxGeometry relative="1" as="geometry">
            <mxPoint x="65" y="539" as="sourcePoint" />
            <Array as="points">
              <mxPoint x="-60" y="268" />
              <mxPoint x="-60" y="686" />
            </Array>
          </mxGeometry>
        </mxCell>
        <mxCell id="st-_w6ac-Qn8dqlOcEFm-214" style="edgeStyle=orthogonalEdgeStyle;rounded=0;orthogonalLoop=1;jettySize=auto;html=1;endArrow=none;endFill=0;entryX=0.5;entryY=0;entryDx=0;entryDy=0;" parent="1" source="st-_w6ac-Qn8dqlOcEFm-215" target="st-_w6ac-Qn8dqlOcEFm-53" edge="1">
          <mxGeometry relative="1" as="geometry">
            <mxPoint x="-400" y="710" as="targetPoint" />
            <Array as="points">
              <mxPoint x="-360" y="686" />
              <mxPoint x="-360" y="735" />
            </Array>
          </mxGeometry>
        </mxCell>
        <mxCell id="st-_w6ac-Qn8dqlOcEFm-215" value="has" style="rhombus;whiteSpace=wrap;html=1;rounded=1;" parent="1" vertex="1">
          <mxGeometry x="-195" y="646" width="80" height="80" as="geometry" />
        </mxCell>
        <mxCell id="st-_w6ac-Qn8dqlOcEFm-216" value="1" style="text;html=1;align=center;verticalAlign=middle;resizable=0;points=[];autosize=1;strokeColor=none;fillColor=none;" parent="1" vertex="1">
          <mxGeometry x="-365" y="705" width="30" height="30" as="geometry" />
        </mxCell>
        <mxCell id="st-_w6ac-Qn8dqlOcEFm-221" style="edgeStyle=orthogonalEdgeStyle;rounded=0;orthogonalLoop=1;jettySize=auto;html=1;exitX=0.5;exitY=0;exitDx=0;exitDy=0;shape=link;" parent="1" source="st-_w6ac-Qn8dqlOcEFm-219" target="st-_w6ac-Qn8dqlOcEFm-1" edge="1">
          <mxGeometry relative="1" as="geometry">
            <Array as="points">
              <mxPoint y="268" />
            </Array>
          </mxGeometry>
        </mxCell>
        <mxCell id="st-_w6ac-Qn8dqlOcEFm-219" value="has" style="rhombus;whiteSpace=wrap;html=1;rounded=1;" parent="1" vertex="1">
          <mxGeometry x="-40" y="428" width="80" height="80" as="geometry" />
        </mxCell>
        <mxCell id="st-_w6ac-Qn8dqlOcEFm-227" value="" style="edgeStyle=orthogonalEdgeStyle;rounded=0;orthogonalLoop=1;jettySize=auto;html=1;endArrow=none;endFill=0;shape=link;exitX=1;exitY=0.5;exitDx=0;exitDy=0;" parent="1" source="st-_w6ac-Qn8dqlOcEFm-43" target="st-_w6ac-Qn8dqlOcEFm-229" edge="1">
          <mxGeometry relative="1" as="geometry">
            <mxPoint x="85" y="790" as="sourcePoint" />
            <Array as="points" />
          </mxGeometry>
        </mxCell>
        <mxCell id="ZE3p-PSbLyeLRk5pYODq-39" style="edgeStyle=orthogonalEdgeStyle;rounded=0;orthogonalLoop=1;jettySize=auto;html=1;exitX=0.915;exitY=0.472;exitDx=0;exitDy=0;shape=link;exitPerimeter=0;" edge="1" parent="1" source="st-_w6ac-Qn8dqlOcEFm-229" target="st-_w6ac-Qn8dqlOcEFm-79">
          <mxGeometry relative="1" as="geometry">
            <Array as="points">
              <mxPoint x="198" y="755" />
            </Array>
          </mxGeometry>
        </mxCell>
        <mxCell id="st-_w6ac-Qn8dqlOcEFm-229" value="enroll" style="rhombus;whiteSpace=wrap;html=1;rounded=1;" parent="1" vertex="1">
          <mxGeometry x="125" y="720" width="80" height="80" as="geometry" />
        </mxCell>
        <mxCell id="st-_w6ac-Qn8dqlOcEFm-232" value="M" style="text;html=1;align=center;verticalAlign=middle;resizable=0;points=[];autosize=1;strokeColor=none;fillColor=none;" parent="1" vertex="1">
          <mxGeometry x="55" y="728" width="30" height="30" as="geometry" />
        </mxCell>
        <mxCell id="st-_w6ac-Qn8dqlOcEFm-233" value="N" style="text;html=1;align=center;verticalAlign=middle;resizable=0;points=[];autosize=1;strokeColor=none;fillColor=none;" parent="1" vertex="1">
          <mxGeometry x="235" y="728" width="30" height="30" as="geometry" />
        </mxCell>
        <mxCell id="st-_w6ac-Qn8dqlOcEFm-240" value="" style="edgeStyle=orthogonalEdgeStyle;rounded=0;orthogonalLoop=1;jettySize=auto;html=1;endArrow=none;endFill=0;shape=link;exitX=1;exitY=0.5;exitDx=0;exitDy=0;entryX=0;entryY=0.5;entryDx=0;entryDy=0;" parent="1" source="st-_w6ac-Qn8dqlOcEFm-53" target="st-_w6ac-Qn8dqlOcEFm-242" edge="1">
          <mxGeometry relative="1" as="geometry">
            <mxPoint x="-305" y="764" as="sourcePoint" />
            <Array as="points" />
            <mxPoint x="-250" y="760" as="targetPoint" />
          </mxGeometry>
        </mxCell>
        <mxCell id="st-_w6ac-Qn8dqlOcEFm-241" style="edgeStyle=orthogonalEdgeStyle;rounded=0;orthogonalLoop=1;jettySize=auto;html=1;endArrow=none;endFill=0;entryX=0;entryY=0.5;entryDx=0;entryDy=0;shape=link;exitX=0.89;exitY=0.459;exitDx=0;exitDy=0;exitPerimeter=0;" parent="1" source="st-_w6ac-Qn8dqlOcEFm-242" target="st-_w6ac-Qn8dqlOcEFm-43" edge="1">
          <mxGeometry relative="1" as="geometry">
            <mxPoint x="-100" y="763" as="targetPoint" />
            <Array as="points">
              <mxPoint x="-169" y="760" />
            </Array>
            <mxPoint x="-164" y="764" as="sourcePoint" />
          </mxGeometry>
        </mxCell>
        <mxCell id="st-_w6ac-Qn8dqlOcEFm-242" value="teach" style="rhombus;whiteSpace=wrap;html=1;rounded=1;" parent="1" vertex="1">
          <mxGeometry x="-240" y="720" width="80" height="80" as="geometry" />
        </mxCell>
        <mxCell id="st-_w6ac-Qn8dqlOcEFm-243" value="1" style="text;html=1;align=center;verticalAlign=middle;resizable=0;points=[];autosize=1;strokeColor=none;fillColor=none;" parent="1" vertex="1">
          <mxGeometry x="-350" y="735" width="30" height="30" as="geometry" />
        </mxCell>
        <mxCell id="st-_w6ac-Qn8dqlOcEFm-244" value="N" style="text;html=1;align=center;verticalAlign=middle;resizable=0;points=[];autosize=1;strokeColor=none;fillColor=none;" parent="1" vertex="1">
          <mxGeometry x="-90" y="735" width="30" height="30" as="geometry" />
        </mxCell>
        <mxCell id="st-_w6ac-Qn8dqlOcEFm-247" value="has" style="rhombus;whiteSpace=wrap;html=1;rounded=1;" parent="1" vertex="1">
          <mxGeometry x="570" y="410" width="80" height="80" as="geometry" />
        </mxCell>
        <mxCell id="st-_w6ac-Qn8dqlOcEFm-250" style="edgeStyle=orthogonalEdgeStyle;rounded=0;orthogonalLoop=1;jettySize=auto;html=1;entryX=0.177;entryY=0.993;entryDx=0;entryDy=0;entryPerimeter=0;shape=link;" parent="1" source="st-_w6ac-Qn8dqlOcEFm-247" target="st-_w6ac-Qn8dqlOcEFm-26" edge="1">
          <mxGeometry relative="1" as="geometry" />
        </mxCell>
        <mxCell id="st-_w6ac-Qn8dqlOcEFm-252" value="M" style="text;html=1;align=center;verticalAlign=middle;resizable=0;points=[];autosize=1;strokeColor=none;fillColor=none;" parent="1" vertex="1">
          <mxGeometry x="580" y="290" width="30" height="30" as="geometry" />
        </mxCell>
        <mxCell id="st-_w6ac-Qn8dqlOcEFm-253" value="1" style="text;html=1;align=center;verticalAlign=middle;resizable=0;points=[];autosize=1;strokeColor=none;fillColor=none;" parent="1" vertex="1">
          <mxGeometry x="25" y="705" width="30" height="30" as="geometry" />
        </mxCell>
        <mxCell id="st-_w6ac-Qn8dqlOcEFm-256" style="edgeStyle=orthogonalEdgeStyle;rounded=0;orthogonalLoop=1;jettySize=auto;html=1;shape=link;" parent="1" source="st-_w6ac-Qn8dqlOcEFm-255" target="st-_w6ac-Qn8dqlOcEFm-62" edge="1">
          <mxGeometry relative="1" as="geometry">
            <Array as="points">
              <mxPoint x="-690" y="415" />
            </Array>
          </mxGeometry>
        </mxCell>
        <mxCell id="st-_w6ac-Qn8dqlOcEFm-255" value="has" style="rhombus;whiteSpace=wrap;html=1;rounded=1;" parent="1" vertex="1">
          <mxGeometry x="-730" y="932.5" width="80" height="80" as="geometry" />
        </mxCell>
        <mxCell id="st-_w6ac-Qn8dqlOcEFm-258" value="1" style="text;html=1;align=center;verticalAlign=middle;resizable=0;points=[];autosize=1;strokeColor=none;fillColor=none;" parent="1" vertex="1">
          <mxGeometry x="-495" y="388" width="30" height="30" as="geometry" />
        </mxCell>
        <mxCell id="st-_w6ac-Qn8dqlOcEFm-259" value="M" style="text;html=1;align=center;verticalAlign=middle;resizable=0;points=[];autosize=1;strokeColor=none;fillColor=none;" parent="1" vertex="1">
          <mxGeometry x="-80" y="780" width="30" height="30" as="geometry" />
        </mxCell>
        <mxCell id="st-_w6ac-Qn8dqlOcEFm-262" style="edgeStyle=orthogonalEdgeStyle;rounded=0;orthogonalLoop=1;jettySize=auto;html=1;entryX=0.5;entryY=1;entryDx=0;entryDy=0;shape=link;" parent="1" source="st-_w6ac-Qn8dqlOcEFm-261" target="st-_w6ac-Qn8dqlOcEFm-62" edge="1">
          <mxGeometry relative="1" as="geometry">
            <mxPoint x="-400" y="450" as="targetPoint" />
          </mxGeometry>
        </mxCell>
        <mxCell id="st-_w6ac-Qn8dqlOcEFm-263" style="edgeStyle=orthogonalEdgeStyle;rounded=0;orthogonalLoop=1;jettySize=auto;html=1;exitX=0.5;exitY=1;exitDx=0;exitDy=0;shape=link;" parent="1" source="st-_w6ac-Qn8dqlOcEFm-261" target="st-_w6ac-Qn8dqlOcEFm-69" edge="1">
          <mxGeometry relative="1" as="geometry" />
        </mxCell>
        <mxCell id="st-_w6ac-Qn8dqlOcEFm-261" value="has" style="rhombus;whiteSpace=wrap;html=1;rounded=1;" parent="1" vertex="1">
          <mxGeometry x="-440" y="485" width="80" height="50" as="geometry" />
        </mxCell>
        <mxCell id="st-_w6ac-Qn8dqlOcEFm-264" value="M" style="text;html=1;align=center;verticalAlign=middle;resizable=0;points=[];autosize=1;strokeColor=none;fillColor=none;" parent="1" vertex="1">
          <mxGeometry x="-405" y="438" width="30" height="30" as="geometry" />
        </mxCell>
        <mxCell id="st-_w6ac-Qn8dqlOcEFm-265" value="N" style="text;html=1;align=center;verticalAlign=middle;resizable=0;points=[];autosize=1;strokeColor=none;fillColor=none;" parent="1" vertex="1">
          <mxGeometry x="-405" y="560" width="30" height="30" as="geometry" />
        </mxCell>
        <mxCell id="st-_w6ac-Qn8dqlOcEFm-266" style="edgeStyle=orthogonalEdgeStyle;rounded=0;orthogonalLoop=1;jettySize=auto;html=1;exitX=0.5;exitY=1;exitDx=0;exitDy=0;shape=link;entryX=0.5;entryY=0;entryDx=0;entryDy=0;" parent="1" source="st-_w6ac-Qn8dqlOcEFm-267" target="st-_w6ac-Qn8dqlOcEFm-62" edge="1">
          <mxGeometry relative="1" as="geometry">
            <mxPoint x="-405" y="410" as="targetPoint" />
          </mxGeometry>
        </mxCell>
        <mxCell id="st-_w6ac-Qn8dqlOcEFm-271" style="edgeStyle=orthogonalEdgeStyle;rounded=0;orthogonalLoop=1;jettySize=auto;html=1;entryX=0.5;entryY=1;entryDx=0;entryDy=0;shape=link;" parent="1" source="st-_w6ac-Qn8dqlOcEFm-267" target="st-_w6ac-Qn8dqlOcEFm-74" edge="1">
          <mxGeometry relative="1" as="geometry" />
        </mxCell>
        <mxCell id="st-_w6ac-Qn8dqlOcEFm-267" value="has" style="rhombus;whiteSpace=wrap;html=1;rounded=1;" parent="1" vertex="1">
          <mxGeometry x="-440" y="320" width="80" height="45" as="geometry" />
        </mxCell>
        <mxCell id="st-_w6ac-Qn8dqlOcEFm-268" value="M" style="text;html=1;align=center;verticalAlign=middle;resizable=0;points=[];autosize=1;strokeColor=none;fillColor=none;" parent="1" vertex="1">
          <mxGeometry x="-395" y="290" width="30" height="30" as="geometry" />
        </mxCell>
        <mxCell id="st-_w6ac-Qn8dqlOcEFm-269" value="1" style="text;html=1;align=center;verticalAlign=middle;resizable=0;points=[];autosize=1;strokeColor=none;fillColor=none;" parent="1" vertex="1">
          <mxGeometry x="-395" y="360" width="30" height="30" as="geometry" />
        </mxCell>
        <mxCell id="ZE3p-PSbLyeLRk5pYODq-5" value="" style="edgeStyle=orthogonalEdgeStyle;rounded=0;orthogonalLoop=1;jettySize=auto;html=1;endArrow=none;endFill=0;exitX=0.5;exitY=1;exitDx=0;exitDy=0;" edge="1" parent="1" target="ZE3p-PSbLyeLRk5pYODq-7" source="st-_w6ac-Qn8dqlOcEFm-33">
          <mxGeometry relative="1" as="geometry">
            <mxPoint x="1135" y="508" as="sourcePoint" />
            <Array as="points">
              <mxPoint x="1110" y="755" />
            </Array>
          </mxGeometry>
        </mxCell>
        <mxCell id="ZE3p-PSbLyeLRk5pYODq-6" style="edgeStyle=orthogonalEdgeStyle;rounded=0;orthogonalLoop=1;jettySize=auto;html=1;entryX=1;entryY=0.5;entryDx=0;entryDy=0;endArrow=none;endFill=0;" edge="1" parent="1" source="ZE3p-PSbLyeLRk5pYODq-7" target="st-_w6ac-Qn8dqlOcEFm-102">
          <mxGeometry relative="1" as="geometry">
            <mxPoint x="1230" y="948" as="targetPoint" />
          </mxGeometry>
        </mxCell>
        <mxCell id="ZE3p-PSbLyeLRk5pYODq-7" value="has" style="rhombus;whiteSpace=wrap;html=1;rounded=1;" vertex="1" parent="1">
          <mxGeometry x="965" y="715" width="80" height="80" as="geometry" />
        </mxCell>
        <mxCell id="ZE3p-PSbLyeLRk5pYODq-8" value="1" style="text;html=1;align=center;verticalAlign=middle;resizable=0;points=[];autosize=1;strokeColor=none;fillColor=none;" vertex="1" parent="1">
          <mxGeometry x="1080" y="540" width="30" height="30" as="geometry" />
        </mxCell>
        <mxCell id="ZE3p-PSbLyeLRk5pYODq-9" value="M" style="text;html=1;align=center;verticalAlign=middle;resizable=0;points=[];autosize=1;strokeColor=none;fillColor=none;" vertex="1" parent="1">
          <mxGeometry x="805" y="726" width="30" height="30" as="geometry" />
        </mxCell>
        <mxCell id="ZE3p-PSbLyeLRk5pYODq-10" style="edgeStyle=orthogonalEdgeStyle;rounded=0;orthogonalLoop=1;jettySize=auto;html=1;shape=link;" edge="1" parent="1" source="ZE3p-PSbLyeLRk5pYODq-12" target="st-_w6ac-Qn8dqlOcEFm-69">
          <mxGeometry relative="1" as="geometry">
            <mxPoint x="-405" y="629.5" as="targetPoint" />
          </mxGeometry>
        </mxCell>
        <mxCell id="ZE3p-PSbLyeLRk5pYODq-11" style="edgeStyle=orthogonalEdgeStyle;rounded=0;orthogonalLoop=1;jettySize=auto;html=1;exitX=0.5;exitY=1;exitDx=0;exitDy=0;shape=link;" edge="1" parent="1" source="ZE3p-PSbLyeLRk5pYODq-12" target="st-_w6ac-Qn8dqlOcEFm-53">
          <mxGeometry relative="1" as="geometry">
            <mxPoint x="-405" y="769.5" as="targetPoint" />
            <Array as="points">
              <mxPoint x="-400" y="730" />
              <mxPoint x="-400" y="730" />
            </Array>
          </mxGeometry>
        </mxCell>
        <mxCell id="ZE3p-PSbLyeLRk5pYODq-12" value="has" style="rhombus;whiteSpace=wrap;html=1;rounded=1;" vertex="1" parent="1">
          <mxGeometry x="-440" y="657.5" width="80" height="50" as="geometry" />
        </mxCell>
        <mxCell id="ZE3p-PSbLyeLRk5pYODq-13" value="1" style="text;html=1;align=center;verticalAlign=middle;resizable=0;points=[];autosize=1;strokeColor=none;fillColor=none;" vertex="1" parent="1">
          <mxGeometry x="-405" y="627.5" width="30" height="30" as="geometry" />
        </mxCell>
        <mxCell id="ZE3p-PSbLyeLRk5pYODq-14" value="1" style="text;html=1;align=center;verticalAlign=middle;resizable=0;points=[];autosize=1;strokeColor=none;fillColor=none;" vertex="1" parent="1">
          <mxGeometry x="-405" y="712.5" width="30" height="30" as="geometry" />
        </mxCell>
        <mxCell id="ZE3p-PSbLyeLRk5pYODq-15" style="edgeStyle=orthogonalEdgeStyle;rounded=0;orthogonalLoop=1;jettySize=auto;html=1;exitX=0;exitY=1;exitDx=0;exitDy=0;entryX=1;entryY=0.5;entryDx=0;entryDy=0;shape=link;" edge="1" parent="1" target="ZE3p-PSbLyeLRk5pYODq-17" source="st-_w6ac-Qn8dqlOcEFm-79">
          <mxGeometry relative="1" as="geometry">
            <mxPoint x="-270" y="980" as="targetPoint" />
            <Array as="points">
              <mxPoint x="210" y="780" />
              <mxPoint x="210" y="1040" />
            </Array>
            <mxPoint x="-150" y="785" as="sourcePoint" />
          </mxGeometry>
        </mxCell>
        <mxCell id="ZE3p-PSbLyeLRk5pYODq-16" style="edgeStyle=orthogonalEdgeStyle;rounded=0;orthogonalLoop=1;jettySize=auto;html=1;shape=link;" edge="1" parent="1" source="ZE3p-PSbLyeLRk5pYODq-17" target="st-_w6ac-Qn8dqlOcEFm-62">
          <mxGeometry relative="1" as="geometry">
            <Array as="points">
              <mxPoint x="-780" y="415" />
            </Array>
            <mxPoint x="-550" y="415" as="targetPoint" />
          </mxGeometry>
        </mxCell>
        <mxCell id="ZE3p-PSbLyeLRk5pYODq-17" value="has" style="rhombus;whiteSpace=wrap;html=1;rounded=1;" vertex="1" parent="1">
          <mxGeometry x="-820" y="1000" width="80" height="80" as="geometry" />
        </mxCell>
        <mxCell id="ZE3p-PSbLyeLRk5pYODq-18" value="M" style="text;html=1;align=center;verticalAlign=middle;resizable=0;points=[];autosize=1;strokeColor=none;fillColor=none;" vertex="1" parent="1">
          <mxGeometry x="235.04999999999995" y="780" width="30" height="30" as="geometry" />
        </mxCell>
        <mxCell id="ZE3p-PSbLyeLRk5pYODq-19" style="edgeStyle=orthogonalEdgeStyle;rounded=0;orthogonalLoop=1;jettySize=auto;html=1;entryX=1;entryY=0.5;entryDx=0;entryDy=0;shape=link;exitX=0;exitY=1;exitDx=0;exitDy=0;" edge="1" parent="1" target="ZE3p-PSbLyeLRk5pYODq-21" source="st-_w6ac-Qn8dqlOcEFm-79">
          <mxGeometry relative="1" as="geometry">
            <mxPoint x="-360" y="1122" as="targetPoint" />
            <Array as="points">
              <mxPoint x="210" y="780" />
              <mxPoint x="210" y="1115" />
            </Array>
            <mxPoint x="210" y="790" as="sourcePoint" />
          </mxGeometry>
        </mxCell>
        <mxCell id="ZE3p-PSbLyeLRk5pYODq-20" style="edgeStyle=orthogonalEdgeStyle;rounded=0;orthogonalLoop=1;jettySize=auto;html=1;shape=link;entryX=0;entryY=0.5;entryDx=0;entryDy=0;" edge="1" parent="1" source="ZE3p-PSbLyeLRk5pYODq-21" target="st-_w6ac-Qn8dqlOcEFm-74">
          <mxGeometry relative="1" as="geometry">
            <Array as="points">
              <mxPoint x="-870" y="265" />
            </Array>
            <mxPoint x="-640" y="557" as="targetPoint" />
          </mxGeometry>
        </mxCell>
        <mxCell id="ZE3p-PSbLyeLRk5pYODq-21" value="has" style="rhombus;whiteSpace=wrap;html=1;rounded=1;" vertex="1" parent="1">
          <mxGeometry x="-910" y="1074.5" width="80" height="80" as="geometry" />
        </mxCell>
        <mxCell id="ZE3p-PSbLyeLRk5pYODq-23" value="1" style="text;html=1;align=center;verticalAlign=middle;resizable=0;points=[];autosize=1;strokeColor=none;fillColor=none;" vertex="1" parent="1">
          <mxGeometry x="-490" y="238" width="30" height="30" as="geometry" />
        </mxCell>
        <mxCell id="ZE3p-PSbLyeLRk5pYODq-24" style="edgeStyle=orthogonalEdgeStyle;rounded=0;orthogonalLoop=1;jettySize=auto;html=1;exitX=0;exitY=1;exitDx=0;exitDy=0;entryX=1;entryY=0.5;entryDx=0;entryDy=0;shape=link;" edge="1" parent="1" target="ZE3p-PSbLyeLRk5pYODq-26" source="st-_w6ac-Qn8dqlOcEFm-79">
          <mxGeometry relative="1" as="geometry">
            <mxPoint x="-445" y="1192.25" as="targetPoint" />
            <Array as="points">
              <mxPoint x="210" y="780" />
              <mxPoint x="210" y="1185" />
            </Array>
            <mxPoint x="-325" y="997.25" as="sourcePoint" />
          </mxGeometry>
        </mxCell>
        <mxCell id="ZE3p-PSbLyeLRk5pYODq-25" style="edgeStyle=orthogonalEdgeStyle;rounded=0;orthogonalLoop=1;jettySize=auto;html=1;shape=link;entryX=0;entryY=0.5;entryDx=0;entryDy=0;" edge="1" parent="1" source="ZE3p-PSbLyeLRk5pYODq-26" target="st-_w6ac-Qn8dqlOcEFm-69">
          <mxGeometry relative="1" as="geometry">
            <Array as="points">
              <mxPoint x="-955" y="605" />
            </Array>
            <mxPoint x="-725" y="627.25" as="targetPoint" />
          </mxGeometry>
        </mxCell>
        <mxCell id="ZE3p-PSbLyeLRk5pYODq-26" value="has" style="rhombus;whiteSpace=wrap;html=1;rounded=1;" vertex="1" parent="1">
          <mxGeometry x="-995" y="1144.75" width="80" height="80" as="geometry" />
        </mxCell>
        <mxCell id="ZE3p-PSbLyeLRk5pYODq-29" value="1" style="text;html=1;align=center;verticalAlign=middle;resizable=0;points=[];autosize=1;strokeColor=none;fillColor=none;" vertex="1" parent="1">
          <mxGeometry x="-485" y="578" width="30" height="30" as="geometry" />
        </mxCell>
        <mxCell id="ZE3p-PSbLyeLRk5pYODq-36" value="" style="edgeStyle=orthogonalEdgeStyle;rounded=0;orthogonalLoop=1;jettySize=auto;html=1;endArrow=none;endFill=0;exitX=1;exitY=0.5;exitDx=0;exitDy=0;" edge="1" parent="1" target="ZE3p-PSbLyeLRk5pYODq-38" source="st-_w6ac-Qn8dqlOcEFm-79">
          <mxGeometry relative="1" as="geometry">
            <mxPoint x="410" y="755" as="sourcePoint" />
            <Array as="points" />
          </mxGeometry>
        </mxCell>
        <mxCell id="ZE3p-PSbLyeLRk5pYODq-38" value="has" style="rhombus;whiteSpace=wrap;html=1;rounded=1;" vertex="1" parent="1">
          <mxGeometry x="475" y="715" width="80" height="80" as="geometry" />
        </mxCell>
        <mxCell id="ZE3p-PSbLyeLRk5pYODq-40" value="" style="edgeStyle=orthogonalEdgeStyle;rounded=0;orthogonalLoop=1;jettySize=auto;html=1;endArrow=none;endFill=0;shape=link;" edge="1" parent="1" source="ZE3p-PSbLyeLRk5pYODq-38" target="st-_w6ac-Qn8dqlOcEFm-102">
          <mxGeometry relative="1" as="geometry">
            <mxPoint x="560" y="754.88" as="sourcePoint" />
            <Array as="points" />
            <mxPoint x="650" y="754.88" as="targetPoint" />
          </mxGeometry>
        </mxCell>
        <mxCell id="ZE3p-PSbLyeLRk5pYODq-41" value="1" style="text;html=1;align=center;verticalAlign=middle;resizable=0;points=[];autosize=1;strokeColor=none;fillColor=none;" vertex="1" parent="1">
          <mxGeometry x="380" y="728" width="30" height="30" as="geometry" />
        </mxCell>
        <mxCell id="ZE3p-PSbLyeLRk5pYODq-42" value="M" style="text;html=1;align=center;verticalAlign=middle;resizable=0;points=[];autosize=1;strokeColor=none;fillColor=none;" vertex="1" parent="1">
          <mxGeometry x="655" y="728" width="30" height="30" as="geometry" />
        </mxCell>
      </root>
    </mxGraphModel>
  </diagram>
</mxfile>
